{"title":"Let Me In 2010 720p.BRRip.x264.Feel-Free","uid":6117744,"size":2499644683,"categoryP":"video","categoryS":"hd___movies","magnet":"?xt=urn:btih:a0e92481a2f391807e2338ef23da21ed78cadc5e&amp;dn=Let+Me+In+2010+720p.BRRip.x264.Feel-Free&amp;tr=udp%3A%2F%2Ftracker.openbittorrent.com%3A80&amp;tr=udp%3A%2F%2Fopen.demonii.com%3A1337&amp;tr=udp%3A%2F%2Ftracker.coppersurfer.tk%3A6969&amp;tr=udp%3A%2F%2Fexodus.desync.com%3A6969","seeders":0,"leechers":1,"uploader":"neon","files":-1,"time":1295629607,"description":"Genrerama | Fantasy | Horror\nLanguage:English\n &lt;a href=&quot; http://www.imdb.com/title/tt1228987/&quot; rel=&quot;nofollow&quot; target=&quot;_NEW&quot;&gt; http://www.imdb.com/title/tt1228987/&lt;/a&gt;\nSource:BluRay.x264-Felony\nSubtitles:Romana\n\n\nFormat                           : Matroska\nFile size                        : 2.32 GiB\nDuration                         : 1h 55mn\nOverall bit rate                 : 2 873 Kbps\n\n\nVideo\nFormat settings, CABAC           : Yes\nFormat settings, ReFrames        : 4 frames\nCodec ID                         : V_MPEG4/ISO/AVC\nDuration                         : 1h 55mn\nBit rate                         : 2 200 Kbps\nWidth                            : 1 280 pixels\nHeight                           : 544 pixels\nDisplay aspect ratio             : 2.35:1\nFrame rate mode                  : Variable\nFrame rate                       : 23.976 fps\nColor space                      : YUV\nChroma subsampling               : 4:2:0\nBit depth                        : 8 bits\nScan type                        : Progressive\nBits/(Pixel*Frame)               : 0.132\nStream size                      : 1.76 GiB (76%)\nWriting library                  : x264 \n\n\nAudio\nID                               : 2\nFormat                           : AC-3\nFormat/Info                      : Audio Coding 3\nMode extension                   : CM (complete main)\nCodec ID                         : A_AC3\nDuration                         : 1h 55mn\nBit rate mode                    : Constant\nBit rate                         : 640 Kbps\nChannel(s)                       : 6 channels\nChannel positions                : Front: L C R, Side: L R, LFE\nSampling rate                    : 48.0 KHz\nBit depth                        : 16 bits\nVideo delay                      : -1mn 5s\nStream size                      : 530 MiB (22%)\nLanguage                         : English\n\n\n    \nPlot:\nA bullied young boy befriends a young female vampire who lives in secrecy with her guardian\n\n","torrent":{"xt":"urn:btih:a0e92481a2f391807e2338ef23da21ed78cadc5e","amp;dn":"Let+Me+In+2010+720p.BRRip.x264.Feel-Free","amp;tr":["udp%3A%2F%2Ftracker.openbittorrent.com%3A80","udp%3A%2F%2Fopen.demonii.com%3A1337","udp%3A%2F%2Ftracker.coppersurfer.tk%3A6969","udp%3A%2F%2Fexodus.desync.com%3A6969"],"infoHash":"a0e92481a2f391807e2338ef23da21ed78cadc5e","infoHashBuffer":{"type":"Buffer","data":[160,233,36,129,162,243,145,128,126,35,56,239,35,218,33,237,120,202,220,94]},"announce":[],"urlList":[]}}